<svg xmlns="http://www.w3.org/2000/svg" xmlns:xlink="http://www.w3.org/1999/xlink" width="45" height="59" viewBox="0 0 45 59"><defs><path id="rapra" d="M928 5022c0-4.97 4.253-9 9.5-9s9.5 4.03 9.5 9-4.253 9-9.5 9-9.5-4.03-9.5-9zm-9.99 11H918l.05.069a22.093 22.093 0 0 0 2.623 3.536L937.278 5059l16.714-22.034a22.116 22.116 0 0 0 2.961-3.905L957 5033h-.01a21.527 21.527 0 0 0 3.01-11c0-12.15-10.074-22-22.5-22s-22.5 9.85-22.5 22c0 4.007 1.096 7.764 3.01 11z"/></defs><g><g transform="translate(-915 -5000)"><use fill="#549ae6" xlink:href="#rapra"/></g></g></svg>