<svg xmlns="http://www.w3.org/2000/svg" xmlns:xlink="http://www.w3.org/1999/xlink" width="18" height="24" viewBox="0 0 18 24">
	<defs>
		<path id="rx6ka" d="M1169.25 5939.98a3.745 3.745 0 0 1 3.75-3.74 3.745 3.745 0 0 1 3.75 3.74 3.745 3.745 0 0 1-3.75 3.74 3.745 3.745 0 0 1-3.75-3.74zm-2.939 6.008l6.606 9.012 6.698-8.93c.42-.455.794-.953 1.114-1.486l.014-.02h-.003a8.923 8.923 0 0 0 1.26-4.584c0-4.96-4.03-8.98-9-8.98s-9 4.02-9 8.98c0 2.31.874 4.417 2.311 6.008z"/>
	</defs>
	<g>
		<g transform="translate(-1164 -5931)">
			<use fill="#fff" xlink:href="#rx6ka"/>
		</g>
	</g>
</svg>