<svg xmlns="http://www.w3.org/2000/svg" xmlns:xlink="http://www.w3.org/1999/xlink" width="24" height="35" viewBox="0 0 24 35">
	<defs>
		<path id="rov2a" d="M524.273 75.66c1.975-1.278 4.506-.544 5.611 1.613l1.302 2.508c1.085 2.14.425 4.828-1.507 6.1l-2.274 1.473-.145.082a6.364 6.364 0 0 0-.142.073c-.099.068-.177.126-.292.21-3.328 2.153-10.113-4.793-14.477-13.247-4.316-8.391-5.85-16.4-2.62-18.503l2.865-1.86c1.975-1.254 4.498-.516 5.6 1.635l1.309 2.521c1.08 2.13.417 4.824-1.511 6.071l-2.166 1.959a54.287 54.287 0 0 0 2.33 5.121c.866 1.685 3.106 4.683 4.05 6.132z"/>
	</defs>
	<g>
		<g opacity=".2" transform="translate(-508 -53)"><use fill="#fff" xlink:href="#rov2a"/></g>
	</g>
</svg>