<svg xmlns="http://www.w3.org/2000/svg" xmlns:xlink="http://www.w3.org/1999/xlink" width="26" height="35" viewBox="0 0 26 35">
	<defs>
		<path id="6bs4a" d="M738.42 64.318c0-2.954 2.373-5.35 5.3-5.35 2.927 0 5.3 2.396 5.3 5.35 0 2.955-2.373 5.35-5.3 5.35-2.927 0-5.3-2.395-5.3-5.35zm-4.162 8.582l9.35 12.898 9.526-12.846a12.877 12.877 0 0 0 1.457-1.964l.083-.112h-.016a12.87 12.87 0 0 0 1.782-6.558c0-7.09-5.695-12.84-12.72-12.84S731 57.229 731 64.319a12.86 12.86 0 0 0 3.258 8.582z"/>
	</defs>
	<g>
		<g opacity=".2" transform="translate(-731 -51)">
			<use fill="#fff" xlink:href="#6bs4a"/>
		</g>
	</g>
</svg>