<?xml version="1.0" encoding="UTF-8"?>
<svg width="24px" height="24px" viewBox="0 0 24 24" version="1.1" xmlns="http://www.w3.org/2000/svg" xmlns:xlink="http://www.w3.org/1999/xlink">
    <!-- Generator: Sketch 51.2 (57519) - http://www.bohemiancoding.com/sketch -->
    <title>Oval 2</title>
    <desc>Created with Sketch.</desc>
    <defs></defs>
    <g id="Symbols" stroke="none" stroke-width="1" fill="none" fill-rule="evenodd">
        <g id="форма-/-поиск-/-айдл" transform="translate(-236.000000, -12.000000)" fill="#FFFFFF" fill-rule="nonzero">
            <path d="M246.121906,31.9639949 C240.531732,31.9639949 236,27.4949024 236,21.9819974 C236,16.4690925 240.531732,12 246.121906,12 C251.71208,12 256.243812,16.4690925 256.243812,21.9819974 C256.243812,27.4949024 251.71208,31.9639949 246.121906,31.9639949 Z M246.121906,29.5683155 C250.370439,29.5683155 253.814555,26.1718052 253.814555,21.9819974 C253.814555,17.7921897 250.370439,14.3956794 246.121906,14.3956794 C241.873374,14.3956794 238.429257,17.7921897 238.429257,21.9819974 C238.429257,26.1718052 241.873374,29.5683155 246.121906,29.5683155 Z M250.740163,27.9885588 L252.427667,26.2652513 L260,33.4766925 L258.312496,35.2 L250.740163,27.9885588 Z" id="Oval-2"></path>
        </g>
    </g>
</svg>