<svg xmlns="http://www.w3.org/2000/svg" xmlns:xlink="http://www.w3.org/1999/xlink" width="340" height="76" viewBox="0 0 340 76"><defs><path id="zpmga" d="M447.858 81.874v11.422h-6.67v-5.48h-21.206v-24.98h7.13v19.038h9.982V62.837h7.176v19.037zm-50.324-12.537c-1.104.929-1.779 2.198-2.024 3.807h12.19c-.245-1.578-.92-2.84-2.024-3.784s-2.453-1.416-4.048-1.416c-1.625 0-2.99.464-4.094 1.393zm16.79 8.039h-18.722c.337 1.548 1.135 2.771 2.392 3.67 1.257.897 2.821 1.346 4.692 1.346 1.288 0 2.43-.193 3.427-.58.997-.388 1.924-1 2.783-1.835l3.818 4.18c-2.33 2.694-5.735 4.041-10.212 4.041-2.79 0-5.26-.55-7.406-1.649-2.147-1.099-3.803-2.624-4.968-4.575-1.165-1.95-1.748-4.165-1.748-6.642 0-2.447.575-4.653 1.725-6.62 1.15-1.966 2.73-3.499 4.738-4.598 2.009-1.1 4.255-1.649 6.739-1.649 2.423 0 4.615.526 6.578 1.58 1.963 1.052 3.504 2.562 4.623 4.528 1.12 1.967 1.679 4.25 1.679 6.852 0 .093-.046.743-.138 1.95zm-30.82-14.54v24.98h-7.176V68.78h-10.304v19.037h-7.13v-24.98zm-51.129 23.379c-2.653-1.44-4.738-3.436-6.256-5.99-1.518-2.553-2.277-5.44-2.277-8.66 0-3.219.759-6.105 2.277-8.659 1.518-2.554 3.603-4.55 6.256-5.99 2.653-1.439 5.635-2.159 8.947-2.159 2.79 0 5.313.496 7.567 1.486 2.254.99 4.148 2.415 5.681 4.272l-4.784 4.457c-2.177-2.538-4.876-3.807-8.096-3.807-1.993 0-3.772.441-5.336 1.323a9.364 9.364 0 0 0-3.657 3.692c-.874 1.578-1.311 3.374-1.311 5.386s.437 3.807 1.311 5.386a9.364 9.364 0 0 0 3.657 3.691c1.564.882 3.343 1.323 5.336 1.323 3.22 0 5.919-1.284 8.096-3.853l4.784 4.457c-1.533 1.888-3.435 3.328-5.704 4.318-2.27.99-4.8 1.486-7.59 1.486-3.281 0-6.248-.72-8.901-2.159zm-20.838-5.85c1.18-1.254 1.771-2.933 1.771-5.038 0-2.105-.59-3.784-1.771-5.038-1.18-1.254-2.691-1.88-4.531-1.88-1.84 0-3.358.626-4.554 1.88-1.196 1.254-1.794 2.933-1.794 5.038 0 2.105.598 3.784 1.794 5.038 1.196 1.253 2.714 1.88 4.554 1.88 1.84 0 3.35-.627 4.531-1.88zm-11.546 6.184c-2.07-1.099-3.688-2.624-4.853-4.575-1.165-1.95-1.748-4.165-1.748-6.642 0-2.478.583-4.692 1.748-6.643 1.165-1.95 2.783-3.476 4.853-4.575 2.07-1.1 4.408-1.649 7.015-1.649 2.607 0 4.937.55 6.992 1.65 2.055 1.098 3.665 2.623 4.83 4.574 1.165 1.951 1.748 4.165 1.748 6.643 0 2.477-.583 4.691-1.748 6.642-1.165 1.951-2.775 3.476-4.83 4.575-2.055 1.1-4.385 1.65-6.992 1.65s-4.945-.55-7.015-1.65zm-7.373-17.77h-8.376v19.038h-7.133V68.78h-8.375v-5.943h23.884zm-32.854 11.377c0-.96-.307-1.664-.92-2.113-.613-.449-1.58-.673-2.898-.673h-6.164v5.525h6.026c2.637 0 3.956-.913 3.956-2.74zm-9.982-7.058h5.428c2.515 0 3.772-.898 3.772-2.693 0-1.764-1.257-2.647-3.772-2.647h-5.428zm16.698 7.615c0 2.26-.843 4.008-2.53 5.247-1.687 1.238-4.201 1.857-7.544 1.857h-13.202v-24.98h12.65c3.097 0 5.52.564 7.268 1.694 1.748 1.13 2.622 2.717 2.622 4.76 0 1.238-.314 2.329-.943 3.273s-1.526 1.68-2.691 2.206c2.913.99 4.37 2.971 4.37 5.943zm-40.02-5.572l-5.106-12.444-5.106 12.444zm2.346 5.711h-14.95l-2.852 6.965h-7.636l14.352-32.502h7.36l14.398 32.502h-7.82zM110.369 85.14c-3.993-11.405-3.04-22.734 3.63-33.042 10.805-16.698 31.071-22.562 48.344-13.594 16.096 8.357 24.47 25.685 18.97 44.934-3.005 10.52-9.937 18.094-19.405 22.817-5.54 2.763-10.373 3.763-16.493 3.763-15.597 0-29.697-9.599-35.046-24.878zm55.998-17.698c-.686 1.486-1.557 1.954-3.082 1.946-11.723-.062-23.446-.088-35.169.02-1.91.017-2.904-.638-3.734-2.389-1.63-3.441-3.476-6.768-5.285-10.24-4.931 5.704-5.989 19.696-2.149 27.864 5.552 11.808 16.005 18.265 26.26 18.53l-16.121-31.037h36.983l-15.183 30.77c9.289.232 20.81-8.247 24.887-18.55 3.694-9.337 3.238-18.587-1.95-27.942-2.002 4.014-3.82 7.475-5.457 11.028zm-42.448-16.914c1.77 3.403 3.482 6.855 5.368 10.196.393.695 1.427 1.388 2.173 1.396 9.066.095 18.135.09 27.202.009.703-.007 1.724-.59 2.048-1.22 1.893-3.68 3.623-7.456 5.382-11.146-11.64-12.15-32.679-10.664-42.173.765zm14.598 28.27l7.284 13.643 6.65-13.642z"/></defs><g><g transform="translate(-108 -34)"><use fill="#fff" xlink:href="#zpmga"/></g></g></svg>