<?xml version="1.0" encoding="UTF-8"?>
<svg width="32px" height="19px" viewBox="0 0 32 19" version="1.1" xmlns="http://www.w3.org/2000/svg" xmlns:xlink="http://www.w3.org/1999/xlink">
    <!-- Generator: Sketch 51.2 (57519) - http://www.bohemiancoding.com/sketch -->
    <title>Combined Shape</title>
    <desc>Created with Sketch.</desc>
    <defs></defs>
    <g id="1920" stroke="none" stroke-width="1" fill="none" fill-rule="evenodd" opacity="0.317354911">
        <g id="1920-/-шапка" transform="translate(-115.000000, -151.000000)" fill="#FFFFFF" fill-rule="nonzero">
            <g id="шапка">
                <path d="M147,168.581818 L143.363636,159.709091 L138.272727,158.218182 C137.109091,160.109091 136.818182,162.509091 137.727273,164.727273 C134.709091,163.672727 127.363636,161.163636 127.363636,161.127273 C127.036364,161.018182 126.636364,160.763636 125.545455,160.763636 C124.454545,160.763636 123.727273,161.127273 123.727273,161.127273 C123.727273,161.127273 116.236364,164.690909 115.763636,165.127273 C115.290909,165.6 115,166.218182 115,166.945455 C115,168.363636 116.127273,169.490909 117.545455,169.490909 L137.181818,169.490909 C138.454545,169.490909 139.472727,168.581818 139.690909,167.418182 C141.654545,169.090909 144.454545,169.636364 147,168.581818 Z M117.545455,168.036364 C116.927273,168.036364 116.454545,167.563636 116.454545,166.945455 C116.454545,166.327273 116.927273,165.854545 117.545455,165.854545 C118.163636,165.854545 118.636364,166.327273 118.636364,166.945455 C118.636364,167.563636 118.163636,168.036364 117.545455,168.036364 Z M125.590909,165.181818 C124.689394,165.181818 124,164.492424 124,163.590909 C124,162.689394 124.689394,162 125.590909,162 C126.492424,162 127.181818,162.689394 127.181818,163.590909 C127.181818,164.492424 126.492424,165.181818 125.590909,165.181818 Z M137.181818,168.036364 C136.563636,168.036364 136.090909,167.563636 136.090909,166.945455 C136.090909,166.327273 136.563636,165.854545 137.181818,165.854545 C137.8,165.854545 138.272727,166.327273 138.272727,166.945455 C138.272727,167.563636 137.8,168.036364 137.181818,168.036364 Z M123.727273,158.709091 C123.8,158.672727 124.636364,158.454545 125.763636,158.454545 C126.454545,158.454545 127.109091,158.527273 127.727273,158.672727 L127.8,158.672727 L133.995605,160.70459 L133.6,157.072727 C133.490909,156.6 133.054545,156.236364 132.545455,156.236364 L126.890909,156.127273 L125.145455,152.309091 C124.781818,151.509091 124.018182,151 123.145455,151 L119.363636,151 C118.563636,151 117.909091,151.654545 117.909091,152.454545 L117.909091,156.090909 L116.381818,157.109091 C115.981818,157.363636 115.727273,157.836364 115.727273,158.309091 L115.690909,162.490909 C116.672727,161.945455 118.781818,160.927273 123.509091,158.781818 L123.727273,158.709091 Z M119.363636,152.490909 L123.145455,152.490909 C123.436364,152.490909 123.690909,152.672727 123.836364,152.927273 L125.181818,156.127273 L119.363636,156.127273 L119.363636,152.490909 Z" id="Combined-Shape"></path>
            </g>
        </g>
    </g>
</svg>