<?xml version="1.0" encoding="UTF-8"?>
<svg width="43px" height="18px" viewBox="0 0 43 18" version="1.1" xmlns="http://www.w3.org/2000/svg" xmlns:xlink="http://www.w3.org/1999/xlink">
    <!-- Generator: Sketch 51.2 (57519) - http://www.bohemiancoding.com/sketch -->
    <title>Combined Shape Copy</title>
    <desc>Created with Sketch.</desc>
    <defs></defs>
    <g id="1920" stroke="none" stroke-width="1" fill="none" fill-rule="evenodd" opacity="0.317354911">
        <g id="1920-/-шапка" transform="translate(-397.000000, -152.000000)" fill="#FFFFFF" fill-rule="nonzero">
            <g id="шапка">
                <path d="M434.684082,165.649512 C435.798328,165.649512 436.745437,166.540909 436.745437,167.710867 C436.745437,168.825113 435.798328,169.772222 434.684082,169.772222 C433.569836,169.772222 432.622727,168.825113 432.622727,167.710867 C432.622727,166.596621 433.569836,165.649512 434.684082,165.649512 Z M439.141066,166.485197 L439.141066,168.156566 L437.588888,168.156566 C437.588888,167.599443 437.588888,167.76658 437.588888,167.655155 C437.588888,167.265169 437.829515,166.485197 437.421751,166.485197 L439.141066,166.485197 Z M397,152 L422.148816,152 L422.148816,163.811007 L397,163.811007 L397,152 Z M419.084639,165.649512 C420.254598,165.649512 421.145994,166.540909 421.145994,167.710867 C421.145994,168.825113 420.198885,169.772222 419.084639,169.772222 C417.970394,169.772222 417.023285,168.825113 417.023285,167.710867 C417.023285,166.596621 417.970394,165.649512 419.084639,165.649512 Z M426.438662,165.370951 L426.438662,167.599443 L422.148816,167.599443 C422.148816,167.599443 422.148816,167.488018 422.148816,167.432306 C422.148816,166.596621 421.814542,165.928074 421.257419,165.370951 L426.438662,165.370951 Z M407.752473,165.649512 C408.866719,165.649512 409.813828,166.540909 409.813828,167.710867 C409.813828,168.825113 408.866719,169.772222 407.752473,169.772222 C406.638227,169.772222 405.691118,168.825113 405.691118,167.710867 C405.691118,166.596621 406.638227,165.649512 407.752473,165.649512 Z M401.456984,165.649512 C402.57123,165.649512 403.518339,166.540909 403.518339,167.710867 C403.518339,168.825113 402.57123,169.772222 401.456984,169.772222 C400.342738,169.772222 399.395629,168.825113 399.395629,167.710867 C399.395629,166.596621 400.342738,165.649512 401.456984,165.649512 Z M399.284204,165.538088 C398.727081,166.095211 398.392807,166.875183 398.392807,167.655155 C398.392807,167.710867 398.392807,167.822292 398.392807,167.878004 L397,167.878004 L397,165.538088 L399.284204,165.538088 Z M409.758116,165.538088 L410.538088,165.538088 C411.373772,165.538088 412.04232,166.206635 412.04232,167.04232 L412.04232,167.878004 L410.649512,167.878004 C410.649512,167.822292 410.649512,167.710867 410.649512,167.655155 C410.649512,166.875183 410.315239,166.095211 409.758116,165.538088 Z M405.579693,165.370951 C405.022571,165.928074 404.688297,166.596621 404.688297,167.432306 C404.688297,167.54373 404.688297,167.599443 404.688297,167.599443 L404.465448,167.599443 C404.465448,167.599443 404.465448,167.488018 404.465448,167.432306 C404.465448,166.596621 404.131174,165.928074 403.574051,165.370951 L405.579693,165.370951 Z M423.541623,154.67419 C424.098746,154.67419 427.441484,154.228492 430.282811,156.456984 C427.441484,156.456984 426.438662,156.456984 426.438662,156.456984 L426.438662,163.811007 L423.541623,163.811007 L423.541623,154.67419 Z M438.472518,164.646691 C438.583943,164.980965 438.918217,164.813828 439.029641,165.370951 L437.803971,165.370951 L436.856862,165.370951 L436.801149,165.370951 C436.244026,164.813828 435.519767,164.646691 434.684082,164.646691 C433.068426,164.646691 431.787043,166.095211 431.787043,167.710867 C431.787043,167.878004 431.842755,167.599443 431.842755,168.156566 L428.054319,168.156566 L428.054319,157.57123 C428.054319,157.57123 431.22992,157.57123 432.232741,157.57123 C433.235563,157.57123 433.291275,158.685475 433.291275,158.685475 L432.901289,158.685475 C432.901289,158.685475 433.068426,159.298311 434.126959,160.96968 C438.305381,160.96968 438.02682,163.365308 438.472518,164.646691 Z M429.669976,160.691118 C430.227099,161.192529 432.734152,161.025392 432.734152,161.025392 L431.452769,158.685475 L429.669976,158.685475 C429.669976,158.685475 429.669976,160.133995 429.669976,160.691118 Z" id="Combined-Shape-Copy"></path>
            </g>
        </g>
    </g>
</svg>