<?xml version="1.0" encoding="UTF-8"?>
<svg width="22px" height="24px" viewBox="0 0 22 24" version="1.1" xmlns="http://www.w3.org/2000/svg" xmlns:xlink="http://www.w3.org/1999/xlink">
    <!-- Generator: Sketch 51.2 (57519) - http://www.bohemiancoding.com/sketch -->
    <title>op2</title>
    <desc>Created with Sketch.</desc>
    <defs></defs>
    <g id="1920" stroke="none" stroke-width="1" fill="none" fill-rule="evenodd">
        <g id="от-1920-деталка-чем-перевозим-автоспец" transform="translate(-111.000000, -494.000000)" fill="#818181" fill-rule="nonzero">
            <g id="Stacked-Group" transform="translate(-1.000000, 0.000000)">
                <g id="верх" transform="translate(0.000000, 448.000000)">
                    <g id="описание" transform="translate(111.000000, 0.000000)">
                        <path d="M1.58666667,64.4 L11.472,69.8690909 C11.7946667,70.0436364 12.2053333,70.0436364 12.528,69.8690909 L22.4426667,64.4 C22.7946667,64.1963636 23,63.8472727 23,63.4690909 L23,52.5309091 C23,52.1527273 22.7946667,51.7745455 22.4426667,51.6 L12.5573333,46.1309091 C12.2346667,45.9563636 11.824,45.9563636 11.5013333,46.1309091 L1.58666667,51.6 C1.23466667,51.7745455 1,52.1527273 1,52.5309091 L1,63.44 C1,63.8472727 1.23466667,64.2254545 1.58666667,64.4 Z M20.8293333,62.8 L13.1146667,67.0472727 L13.1146667,58.64 L20.8,54.4218182 L20.8293333,62.8 Z M12.0293333,48.3418182 L19.6853333,52.56 L12.0293333,56.7490909 L4.37333333,52.56 L12.0293333,48.3418182 Z M3.22933333,54.3927273 L10.9146667,58.64 L10.9146667,67.0472727 L3.2,62.8290909 L3.22933333,54.3927273 Z" id="op2"></path>
                    </g>
                </g>
            </g>
        </g>
    </g>
</svg>