<?xml version="1.0" encoding="UTF-8"?>
<svg width="20px" height="15px" viewBox="0 0 20 15" version="1.1" xmlns="http://www.w3.org/2000/svg" xmlns:xlink="http://www.w3.org/1999/xlink">
    <!-- Generator: Sketch 51.2 (57519) - http://www.bohemiancoding.com/sketch -->
    <title>op4</title>
    <desc>Created with Sketch.</desc>
    <defs></defs>
    <g id="1920" stroke="none" stroke-width="1" fill="none" fill-rule="evenodd">
        <g id="от-1920-деталка-чем-перевозим-автоспец" transform="translate(-112.000000, -589.000000)" fill="#818181" fill-rule="nonzero">
            <g id="Stacked-Group" transform="translate(-1.000000, 0.000000)">
                <g id="верх" transform="translate(0.000000, 448.000000)">
                    <g id="описание" transform="translate(111.000000, 0.000000)">
                        <path d="M3,151 L2,151 L2,149 L2,141 L4,141 L4,149 L20,149 L20,141 L22,141 L22,149 L22,151 L21,151 L21,154 L21,156 L16,156 L16,154 L16,151 L8,151 L8,154 L8,156 L3,156 L3,154 L3,151 Z M5,151 L5,154 L6,154 L6,151 L5,151 Z M18,151 L18,154 L19,154 L19,151 L18,151 Z" id="op4"></path>
                    </g>
                </g>
            </g>
        </g>
    </g>
</svg>