<?xml version="1.0" encoding="UTF-8"?>
<svg width="23px" height="23px" viewBox="0 0 23 23" version="1.1" xmlns="http://www.w3.org/2000/svg" xmlns:xlink="http://www.w3.org/1999/xlink">
    <!-- Generator: Sketch 51.2 (57519) - http://www.bohemiancoding.com/sketch -->
    <title>op1</title>
    <desc>Created with Sketch.</desc>
    <defs></defs>
    <g id="1920" stroke="none" stroke-width="1" fill="none" fill-rule="evenodd">
        <g id="от-1920-деталка-чем-перевозим-автоспец" transform="translate(-110.000000, -448.000000)" fill="#818181" fill-rule="nonzero">
            <g id="Stacked-Group" transform="translate(-1.000000, 0.000000)">
                <g id="верх" transform="translate(0.000000, 448.000000)">
                    <g id="описание" transform="translate(111.000000, 0.000000)">
                        <path d="M20.355,6.92346939 L15.41,6.92346939 C15.755,6.21938776 15.985,5.51530612 15.985,4.57653061 C15.985,1.99489796 13.915,0 11.5,0 C9.085,0 7.015,1.99489796 7.015,4.57653061 C7.015,5.39795918 7.245,6.21938776 7.59,6.92346939 L2.645,6.92346939 L0,23 L23,23 L20.355,6.92346939 Z M9.2,4.57653061 C9.2,3.28571429 10.235,2.22959184 11.5,2.22959184 C12.765,2.22959184 13.8,3.28571429 13.8,4.57653061 C13.8,5.86734694 12.765,6.92346939 11.5,6.92346939 C10.235,6.92346939 9.2,5.86734694 9.2,4.57653061 Z M2.645,20.7704082 L4.6,9.15306122 L18.4,9.15306122 L20.24,20.6530612 L2.645,20.6530612 L2.645,20.7704082 Z" id="op1"></path>
                    </g>
                </g>
            </g>
        </g>
    </g>
</svg>