<?xml version="1.0" encoding="UTF-8"?>
<svg width="22px" height="15px" viewBox="0 0 22 15" version="1.1" xmlns="http://www.w3.org/2000/svg" xmlns:xlink="http://www.w3.org/1999/xlink">
    <!-- Generator: Sketch 51.2 (57519) - http://www.bohemiancoding.com/sketch -->
    <title>op3</title>
    <desc>Created with Sketch.</desc>
    <defs></defs>
    <g id="1920" stroke="none" stroke-width="1" fill="none" fill-rule="evenodd">
        <g id="от-1920-деталка-чем-перевозим-автоспец" transform="translate(-111.000000, -545.000000)" fill="#818181" fill-rule="nonzero">
            <g id="Stacked-Group" transform="translate(-1.000000, 0.000000)">
                <g id="верх" transform="translate(0.000000, 448.000000)">
                    <g id="описание" transform="translate(111.000000, 0.000000)">
                        <path d="M1,97 L3,97 L3,112 L1,112 L1,97 Z M9,97 L11,97 L11,112 L9,112 L9,97 Z M17,97 L19,97 L19,112 L17,112 L17,97 Z M5,107 L7,107 L7,112 L5,112 L5,107 Z M13,107 L15,107 L15,112 L13,112 L13,107 Z M21,107 L23,107 L23,112 L21,112 L21,107 Z" id="op3"></path>
                    </g>
                </g>
            </g>
        </g>
    </g>
</svg>