<?xml version="1.0" encoding="UTF-8"?>
<svg width="15px" height="18px" viewBox="0 0 15 18" version="1.1" xmlns="http://www.w3.org/2000/svg" xmlns:xlink="http://www.w3.org/1999/xlink">
    <!-- Generator: Sketch 51.2 (57519) - http://www.bohemiancoding.com/sketch -->
    <title>op5</title>
    <desc>Created with Sketch.</desc>
    <defs></defs>
    <g id="1920" stroke="none" stroke-width="1" fill="none" fill-rule="evenodd">
        <g id="от-1920-деталка-чем-перевозим-автоспец" transform="translate(-115.000000, -634.000000)" fill="#818181" fill-rule="nonzero">
            <g id="Stacked-Group" transform="translate(-1.000000, 0.000000)">
                <g id="верх" transform="translate(0.000000, 448.000000)">
                    <g id="описание" transform="translate(111.000000, 0.000000)">
                        <path d="M9.5,189.5 L11.5,189.5 L11.5,204.5 L9.5,204.5 L9.5,189.5 Z M17.5,189.5 L19.5,189.5 L19.5,204.5 L17.5,204.5 L17.5,189.5 Z M5.5,199.5 L7.5,199.5 L7.5,204.5 L5.5,204.5 L5.5,199.5 Z M13.5,199.5 L15.5,199.5 L15.5,204.5 L13.5,204.5 L13.5,199.5 Z M21.5,199.5 L23.5,199.5 L23.5,204.5 L21.5,204.5 L21.5,199.5 Z" id="op5" transform="translate(12.500000, 197.000000) scale(1, -1) rotate(-270.000000) translate(-12.500000, -197.000000) "></path>
                    </g>
                </g>
            </g>
        </g>
    </g>
</svg>