<?xml version="1.0" encoding="UTF-8"?>
<svg width="22px" height="15px" viewBox="0 0 22 15" version="1.1" xmlns="http://www.w3.org/2000/svg" xmlns:xlink="http://www.w3.org/1999/xlink">
    <!-- Generator: Sketch 51.2 (57519) - http://www.bohemiancoding.com/sketch -->
    <title>op6</title>
    <desc>Created with Sketch.</desc>
    <defs></defs>
    <g id="1920" stroke="none" stroke-width="1" fill="none" fill-rule="evenodd">
        <g id="от-1920-деталка-чем-перевозим-автоспец" transform="translate(-112.000000, -683.000000)" fill="#818181" fill-rule="nonzero">
            <g id="Stacked-Group" transform="translate(-1.000000, 0.000000)">
                <g id="верх" transform="translate(0.000000, 448.000000)">
                    <g id="описание" transform="translate(111.000000, 0.000000)">
                        <path d="M24,248 L24,250 L14,250 L14,248 L14,247 L16,247 L16,248 L22,248 L22,247 L24,247 L24,248 Z M24,244 L24,246 L14,246 L14,244 L14,243 L16,243 L16,244 L22,244 L22,243 L24,243 L24,244 Z M24,240 L24,242 L14,242 L14,240 L14,239 L16,239 L16,240 L22,240 L22,239 L24,239 L24,240 Z M24,236 L24,238 L14,238 L14,236 L14,235 L16,235 L16,236 L22,236 L22,235 L24,235 L24,236 Z M12,248 L12,250 L2,250 L2,248 L2,247 L4,247 L4,248 L10,248 L10,247 L12,247 L12,248 Z M12,244 L12,246 L2,246 L2,244 L2,243 L4,243 L4,244 L10,244 L10,243 L12,243 L12,244 Z M12,240 L12,242 L2,242 L2,240 L2,239 L4,239 L4,240 L10,240 L10,239 L12,239 L12,240 Z M12,236 L12,238 L2,238 L2,236 L2,235 L4,235 L4,236 L10,236 L10,235 L12,235 L12,236 Z" id="op6" transform="translate(13.000000, 242.500000) rotate(-180.000000) translate(-13.000000, -242.500000) "></path>
                    </g>
                </g>
            </g>
        </g>
    </g>
</svg>