<?xml version="1.0" encoding="UTF-8"?>
<svg width="75px" height="80px" viewBox="0 0 75 80" version="1.1" xmlns="http://www.w3.org/2000/svg" xmlns:xlink="http://www.w3.org/1999/xlink">
    <!-- Generator: Sketch 51.2 (57519) - http://www.bohemiancoding.com/sketch -->
    <title>ic3</title>
    <desc>Created with Sketch.</desc>
    <defs></defs>
    <g id="1920" stroke="none" stroke-width="1" fill="none" fill-rule="evenodd">
        <g id="от-1920-главная-автоспец" transform="translate(-279.000000, -1908.000000)" fill="#CBCED4" fill-rule="nonzero">
            <g id="Stacked-Group" transform="translate(-1.000000, 0.000000)">
                <g id="утп" transform="translate(112.000000, 1637.000000)">
                    <path d="M240.383382,309.81688 C244.409985,300.303941 241.94801,285.852948 236.408786,279.336162 C233.921248,291.773853 215.679007,302.553479 215.679007,302.553479 C215.679007,302.553479 216.922776,298.822172 215.264711,299.651645 C213.606646,300.481119 211.533404,298.822172 213.191469,295.090865 C214.849534,291.359557 219.410314,294.676569 219.410314,294.676569 L220.654083,293.4328 C221.897852,291.774735 217.752249,290.530966 218.996018,289.701492 C220.239787,288.872019 223.556799,290.945261 223.556799,290.945261 C223.556799,290.945261 223.971095,290.945261 224.386272,288.457723 C224.80145,285.970185 219.825492,287.213954 220.654965,283.896943 C221.484438,280.579931 221.069261,281.747011 216.509362,281.332716 C211.949462,280.91842 214.021823,285.815926 214.021823,285.815926 L213.607527,285.815926 C210.290516,285.815926 209.461924,280.917538 211.119989,277.600527 C212.778054,274.283515 206.974386,275.129737 206.974386,275.129737 L205.314558,271 L205.060692,271 L203.402627,274.546196 C203.402627,274.546196 197.598077,274.998396 199.257023,278.315407 C200.91597,281.632419 200.086497,285.815926 196.769485,285.815926 L196.355189,285.815926 C196.355189,285.815926 198.428432,280.917538 193.867651,281.332716 C189.30687,281.747893 188.892574,281.164353 189.722048,284.480483 C190.551521,287.797494 185.576444,286.261955 185.99074,288.749493 C186.405036,291.237032 186.820214,291.091587 186.820214,291.091587 C186.820214,291.091587 190.137225,288.946063 191.380994,289.774655 C192.624763,290.603247 188.47916,291.810875 189.722929,293.469822 L190.966698,294.69508 C190.966698,294.69508 195.527479,291.369254 197.185544,295.100561 C198.843609,298.831868 196.771248,300.485526 195.112302,299.656934 C193.453355,298.828342 194.698006,302.557005 194.698006,302.557005 C194.698006,302.557005 176.45312,291.775616 173.965582,279.337043 C168.426358,285.85383 165.964383,300.303941 169.990986,309.81688 C168.853876,310.154487 167.468188,310.982197 169.404801,312.91881 C172.306635,315.820644 173.136109,315.820644 174.794174,319.967129 C176.452239,324.113613 179.354954,331.576228 180.183546,332.819997 C180.262879,332.938997 180.357198,333.115293 180.464738,333.336545 C179.042029,334.493047 178.468185,336.553068 180.598723,338.20937 C181.331234,338.778806 182.111344,339.025621 182.911729,339.063524 C183.596639,340.564686 184.26392,341.780248 184.745208,341.940677 C185.726296,342.267706 186.444703,340.527664 186.095636,338.354814 C188.331953,337.415156 190.434284,335.909587 191.793527,336.136127 C194.281065,336.550423 187.647924,340.281731 190.549758,344.013919 C193.39077,347.666775 202.189709,347.34856 204.891447,350.05735 C204.979595,350.268906 205.078321,350.363224 205.187625,350.326202 C205.296928,350.363224 205.394773,350.269787 205.483802,350.05735 C208.18554,347.34856 216.98448,347.667656 219.825492,344.013919 C222.727326,340.282612 216.094184,336.551305 218.581722,336.136127 C219.940965,335.909587 222.043297,337.415156 224.279613,338.354814 C223.930547,340.528545 224.648953,342.267706 225.630041,341.940677 C226.11133,341.780248 226.77861,340.564686 227.463521,339.063524 C228.263024,339.026502 229.044016,338.778806 229.776526,338.20937 C231.906183,336.553068 231.333221,334.492166 229.910511,333.335663 C230.01717,333.114412 230.11237,332.938116 230.191703,332.819116 C231.021177,331.575347 233.923011,324.112732 235.581076,319.966247 C237.239141,315.819762 238.068614,315.820644 240.970448,312.917928 C242.90618,310.982197 241.520492,310.154487 240.383382,309.81688 Z M188.476516,324.112732 C180.184428,328.673513 191.37835,333.234293 191.37835,333.234293 C191.37835,333.234293 187.232746,334.478062 184.330031,332.819997 C184.071757,332.67279 183.800261,332.573183 183.522595,332.512361 C181.189315,328.095261 177.420986,321.185335 174.638152,316.107125 C174.691922,316.148555 174.740403,316.195273 174.794174,316.235821 C184.744327,323.698436 193.036415,319.137655 193.865888,316.650117 C194.695361,314.162579 196.768604,319.552833 188.476516,324.112732 Z M209.045865,286.929236 C208.631569,289.416774 205.314558,295.985568 205.314558,295.985568 C205.314558,295.985568 201.744562,289.528722 201.329384,287.041184 C200.914207,284.553646 203.402627,285.815926 204.231218,285.815926 C204.510648,285.815926 205.86372,285.815926 206.14315,285.815926 C206.972623,285.815926 209.460161,284.441698 209.045865,286.929236 Z M226.851773,332.511479 C226.574107,332.572301 226.302611,332.671909 226.044337,332.819116 C223.142503,334.477181 218.996018,333.233412 218.996018,333.233412 C218.996018,333.233412 230.18994,328.672631 221.897852,324.11185 C213.605764,319.55107 215.679007,314.161697 216.50848,316.649236 C217.337953,319.136774 225.630041,323.697555 235.580194,316.23494 C235.633965,316.194392 235.683327,316.147673 235.736216,316.106244 C232.953382,321.184453 229.185053,328.09438 226.851773,332.511479 Z" id="ic3"></path>
                </g>
            </g>
        </g>
    </g>
</svg>