<?xml version="1.0" encoding="UTF-8"?>
<svg width="67px" height="81px" viewBox="0 0 67 81" version="1.1" xmlns="http://www.w3.org/2000/svg" xmlns:xlink="http://www.w3.org/1999/xlink">
    <!-- Generator: Sketch 51.2 (57519) - http://www.bohemiancoding.com/sketch -->
    <title>ic2</title>
    <desc>Created with Sketch.</desc>
    <defs></defs>
    <g id="1920" stroke="none" stroke-width="1" fill="none" fill-rule="evenodd">
        <g id="от-1920-главная-автоспец" transform="translate(-715.000000, -1669.000000)" fill="#CBCED4" fill-rule="nonzero">
            <g id="Stacked-Group" transform="translate(-1.000000, 0.000000)">
                <g id="утп" transform="translate(112.000000, 1637.000000)">
                    <path d="M648.582217,46.4087012 C647.565132,45.3916164 646.209019,44.883074 644.852906,44.883074 L642.394951,44.883074 L642.394951,40.1366783 C642.394951,35.6445538 638.750397,32 634.258272,32 L619.764814,32 C615.27269,32 611.628136,35.6445538 611.628136,40.1366783 L611.628136,44.883074 L609.339695,44.883074 C606.373198,44.883074 604,47.2562718 604,50.2227691 L604,107.264274 C604,110.230772 606.373198,112.60397 609.339695,112.60397 L661.380534,112.60397 C664.347031,112.60397 666.720229,110.230772 666.720229,107.264274 L666.720229,66.6656399 C666.720229,65.2247698 666.126929,63.8686567 665.194601,62.936329 L648.582217,46.4087012 Z M618.239187,40.1366783 C618.239187,39.2891077 618.917244,38.5262941 619.849571,38.5262941 L634.34303,38.5262941 C635.1906,38.5262941 635.953414,39.2043506 635.953414,40.1366783 L635.953414,44.883074 L618.239187,44.883074 L618.239187,40.1366783 Z M657.312194,102.77215 C656.973166,103.111178 656.549381,103.280692 656.125595,103.280692 C655.70181,103.280692 655.278025,103.111178 654.938997,102.77215 L645.954748,93.7879009 L625.104509,93.7879009 L616.12026,102.77215 C615.781232,103.111178 615.357447,103.280692 614.933661,103.280692 C614.509876,103.280692 614.086091,103.111178 613.747063,102.77215 C613.069006,102.094093 613.069006,100.992252 613.747063,100.398952 L622.731312,91.4147031 L622.731312,70.649222 L613.747063,61.664973 C613.069006,60.9869165 613.069006,59.8850746 613.747063,59.2917752 C614.425119,58.6137186 615.442204,58.6137186 616.12026,59.2917752 L625.104509,68.2760241 L645.86999,68.2760241 L651.040171,63.1058431 C651.718228,62.4277866 652.735313,62.4277866 653.413369,63.1058431 C654.091426,63.7838997 654.091426,64.8857415 653.413369,65.479041 L648.243188,70.649222 L648.243188,91.4147031 L657.227437,100.398952 C657.990251,101.077009 657.990251,102.17885 657.312194,102.77215 Z M670.280025,51.6636393 C670.873325,52.2569387 670.873325,53.2740235 670.280025,53.95208 L666.296443,57.9356621 C665.618387,58.5289616 664.601302,58.5289616 664.008003,57.9356621 L654.006669,47.9343284 C653.413369,47.2562718 653.413369,46.239187 654.006669,45.6458876 L657.990251,41.6623055 C658.668307,41.069006 659.685392,41.069006 660.278692,41.6623055 L670.280025,51.6636393 Z M626.121594,71.6663068 L644.852906,71.6663068 L644.852906,90.3976183 L626.121594,90.3976183 L626.121594,71.6663068 Z" id="ic2"></path>
                </g>
            </g>
        </g>
    </g>
</svg>