<?xml version="1.0" encoding="UTF-8"?>
<svg width="305px" height="277px" viewBox="0 0 305 277" version="1.1" xmlns="http://www.w3.org/2000/svg" xmlns:xlink="http://www.w3.org/1999/xlink">
    <!-- Generator: Sketch 51.2 (57519) - http://www.bohemiancoding.com/sketch -->
    <title>ic5</title>
    <desc>Created with Sketch.</desc>
    <defs></defs>
    <g id="1920" stroke="none" stroke-width="1" fill="none" fill-rule="evenodd">
        <g id="от-1920-главная-автоспец" transform="translate(-1428.000000, -1769.000000)" fill="#CBCED4" fill-rule="nonzero">
            <g id="Stacked-Group" transform="translate(-1.000000, 0.000000)">
                <g id="утп" transform="translate(112.000000, 1637.000000)">
                    <path d="M1617.0893,263.237442 L1485.86541,132.013548 L1392.82455,132 C1380.88155,132 1371.191,141.68717 1371.191,153.63355 L1371.18761,246.687962 L1502.41489,377.915243 C1508.75558,384.252549 1519.01179,384.252549 1525.35248,377.915243 L1617.08592,286.171648 C1623.42661,279.827567 1623.42661,269.574748 1617.0893,263.237442 Z M1419.56249,180.385043 C1413.22857,186.725736 1402.95882,186.725736 1396.6249,180.385043 C1390.29775,174.051124 1390.29098,163.79153 1396.6249,157.457612 C1402.95882,151.120306 1413.23196,151.120306 1419.56249,157.454224 C1425.8998,163.781369 1425.8998,174.047737 1419.56249,180.385043 Z M1479.35875,269.239423 C1478.18342,272.399608 1476.25276,275.370114 1473.56677,278.161103 C1470.83675,280.98935 1467.90689,283.058882 1464.7738,284.366311 C1461.63732,285.677128 1458.49407,286.327455 1455.33728,286.327455 C1452.18048,286.327455 1449.10158,285.677128 1446.10059,284.383247 C1443.09622,283.085979 1440.36281,281.250159 1437.89698,278.875786 L1433.22614,274.370913 C1430.72645,271.955895 1428.76869,269.269907 1427.36642,266.316336 C1425.96415,263.362766 1425.17834,260.314356 1425.02253,257.15417 C1424.86672,254.00076 1425.38495,250.8338 1426.57722,247.656679 C1427.77626,244.479559 1429.7137,241.495504 1432.40307,238.704515 C1435.13309,235.876268 1438.06634,233.806736 1441.19604,232.499307 C1444.32913,231.191878 1447.4656,230.568647 1450.60208,230.629615 C1453.73855,230.690584 1456.81067,231.371395 1459.81505,232.665276 C1462.81604,233.962544 1465.56977,235.818687 1468.07286,238.233705 L1472.74031,242.738578 C1475.20614,245.112951 1477.15373,247.771842 1478.57971,250.701702 C1480.0023,253.63495 1480.77795,256.666425 1480.91682,259.8029 C1481.04892,262.932601 1480.52731,266.079238 1479.35875,269.239423 Z M1507.71574,318.457698 L1480.28005,208.823322 L1490.42448,206.316851 L1517.85678,315.951227 L1507.71574,318.457698 Z M1570.58073,274.248977 C1569.4054,277.409162 1567.47812,280.383055 1564.78875,283.170657 C1562.05873,285.998904 1559.12887,288.068436 1555.99239,289.375865 C1552.86269,290.683294 1549.71605,291.340396 1546.56264,291.337009 C1543.40246,291.337009 1540.32018,290.686682 1537.31919,289.389414 C1534.3182,288.092146 1531.56446,286.23939 1529.05799,283.817597 L1524.32957,279.258531 C1521.86375,276.880771 1519.91954,274.208331 1518.49356,271.234438 C1517.07097,268.263932 1516.29193,265.208747 1516.15306,262.072272 C1516.01757,258.939184 1516.54596,255.782386 1517.73823,252.601878 C1518.93389,249.424757 1520.87471,246.440702 1523.56408,243.653101 C1526.29072,240.824854 1529.22396,238.751935 1532.35705,237.444506 C1535.49014,236.137076 1538.62662,235.493523 1541.7597,235.517233 C1544.89618,235.540943 1547.97846,236.208206 1550.99977,237.522409 C1554.02447,238.836613 1556.76804,240.685982 1559.23387,243.060354 L1563.96229,247.619421 C1566.46876,250.037826 1568.41974,252.720427 1569.8254,255.673998 C1571.22767,258.627569 1571.99993,261.672592 1572.13542,264.80568 C1572.27429,267.945542 1571.75606,271.088792 1570.58073,274.248977 Z M1559.37613,260.575164 C1560.31775,262.22808 1560.91727,263.935189 1561.17469,265.696493 C1561.42195,267.457797 1561.26275,269.236036 1560.70049,271.034598 C1560.13484,272.829773 1559.07806,274.536882 1557.51998,276.15254 C1555.91787,277.81223 1554.22431,278.963851 1552.42914,279.614179 C1550.63396,280.261119 1548.83879,280.501605 1547.05378,280.335636 C1545.26537,280.169667 1543.51423,279.654824 1541.81051,278.791108 C1540.10679,277.927392 1538.5521,276.816416 1537.13628,275.451405 L1532.40786,270.892339 C1530.99204,269.527328 1529.8201,268.013285 1528.90219,266.340046 C1527.97412,264.670195 1527.40847,262.952924 1527.19846,261.188233 C1526.98846,259.42693 1527.16459,257.645303 1527.72347,255.850128 C1528.28912,254.051566 1529.3459,252.344457 1530.90736,250.728799 C1532.46544,249.113142 1534.14207,247.978456 1535.93724,247.331516 C1537.72903,246.684575 1539.50388,246.440702 1541.25163,246.610059 C1543.00278,246.779415 1544.73021,247.294257 1546.43393,248.154586 C1548.13765,249.018303 1549.69573,250.129279 1551.10816,251.494289 L1555.83658,256.053356 C1557.2524,257.418366 1558.43451,258.925635 1559.37613,260.575164 Z M1345.39806,251.040415 L1382.40576,389.130005 L1329.02471,374.829575 C1320.37061,372.499235 1315.2459,363.608038 1317.55253,354.967489 L1345.39806,251.040415 Z M1376.13958,282.212101 L1486.3938,392.456159 L1426.74996,408.446764 C1418.10264,410.756781 1409.21822,405.621904 1406.88788,396.974581 L1376.13958,282.212101 Z M1468.20834,255.623191 C1469.15335,257.27272 1469.74271,258.973055 1469.97303,260.72081 C1470.20336,262.465178 1470.03739,264.233256 1469.47174,266.031818 C1468.90948,267.83038 1467.85269,269.53749 1466.29123,271.153147 C1464.69251,272.80945 1462.99556,273.961071 1461.20377,274.611399 C1459.4086,275.258339 1457.61342,275.498825 1455.82164,275.332856 C1454.03662,275.166887 1452.29903,274.662206 1450.61563,273.818812 C1448.93223,272.975419 1447.38431,271.871217 1445.97188,270.509594 L1441.30104,266.004721 C1439.88522,264.639711 1438.71667,263.12228 1437.79537,261.452429 C1436.8673,259.782577 1436.28133,258.065306 1436.03068,256.300616 C1435.78003,254.539312 1435.93584,252.757686 1436.50149,250.962511 C1437.06375,249.163949 1438.14086,247.436516 1439.74297,245.780214 C1441.30104,244.164556 1442.97767,243.02987 1444.77284,242.38293 C1446.56463,241.732602 1448.34964,241.505665 1450.11772,241.68857 C1451.88919,241.874862 1453.62678,242.396478 1455.3305,243.260195 C1457.03084,244.123911 1458.5923,245.234887 1460.00473,246.599897 L1464.67557,251.10477 C1466.09139,252.466393 1467.26672,253.973663 1468.20834,255.623191 Z" id="ic5"></path>
                </g>
            </g>
        </g>
    </g>
</svg>