<?xml version="1.0" encoding="UTF-8"?>
<svg width="59px" height="80px" viewBox="0 0 59 80" version="1.1" xmlns="http://www.w3.org/2000/svg" xmlns:xlink="http://www.w3.org/1999/xlink">
    <!-- Generator: Sketch 51.2 (57519) - http://www.bohemiancoding.com/sketch -->
    <title>ic1</title>
    <desc>Created with Sketch.</desc>
    <defs></defs>
    <g id="1920" stroke="none" stroke-width="1" fill="none" fill-rule="evenodd">
        <g id="от-1920-главная-автоспец" transform="translate(-279.000000, -1670.000000)" fill="#CACDD3">
            <g id="Stacked-Group" transform="translate(-1.000000, 0.000000)">
                <g id="утп" transform="translate(112.000000, 1637.000000)">
                    <path d="M182.876951,52.2627912 C181.488598,52.2627912 180.099613,52.2403862 178.712653,52.2843102 C178.474932,52.2917785 178.246198,52.582411 178.013413,52.7422842 C178.232274,52.9215245 178.447716,53.1054483 178.673286,53.2758278 C178.713919,53.3067139 178.796197,53.2832962 178.859235,53.2832962 C181.572902,53.2834228 184.286443,53.2819038 187.00011,53.2853215 C187.365426,53.2857012 187.722261,53.2329165 187.73378,52.7919044 C187.746691,52.3021582 187.3653,52.2582342 186.978971,52.2595001 C185.611631,52.2636773 184.244291,52.2611456 182.876951,52.2627912 M188.135299,47.4671013 C191.233016,47.4671013 194.330733,47.4672279 197.428578,47.466595 C197.596932,47.466595 197.797438,47.5155822 197.925919,47.442038 C198.104526,47.3398863 198.361235,47.1276081 198.344905,46.9911526 C198.321741,46.7984946 198.102121,46.6022923 197.921868,46.4668494 C197.826045,46.3948242 197.636299,46.4446976 197.488957,46.4446976 C191.335548,46.4441912 185.182264,46.4468495 179.028981,46.4390014 C178.573919,46.438495 178.062907,46.4876089 178.054552,46.987988 C178.044552,47.5898859 178.633539,47.4621646 179.031766,47.4631772 C182.066193,47.4703924 185.100746,47.4671013 188.135299,47.4671013 M200.567054,83.7861675 C207.75983,83.7861675 214.952479,83.7864207 222.145254,83.7857878 C222.984114,83.7856612 223.072215,83.7027499 223.072341,82.8962953 C223.073481,75.5560518 223.073354,68.2155551 223.072341,60.875185 C223.072341,60.0903759 222.971202,59.9827811 222.207912,59.9827811 C207.780336,59.9813887 193.352633,59.9843 178.925057,59.9726545 C178.338096,59.9721482 178.101514,60.1279707 178.111261,60.7568307 C178.143919,62.8578406 178.123666,64.9597366 178.12354,67.0612528 C178.12354,68.7831493 178.123666,70.5050457 178.123666,72.2268156 L178.123666,78.1518711 C178.123666,79.6916159 178.12316,81.2314873 178.123793,82.7712322 C178.124172,83.734522 178.173919,83.7859144 179.115437,83.7859144 C186.265934,83.7862941 193.416557,83.7861675 200.567054,83.7861675 M173.325318,70.3897294 C173.325318,59.063162 173.325065,47.7367212 173.325824,36.4101538 C173.325951,34.8099027 174.156836,33.5514234 175.492151,33.222563 C176.035568,33.0887657 176.611896,33.0362342 177.173288,33.0357278 C188.563146,33.0253481 199.953005,33.0442088 211.342736,33.0000317 C212.352102,32.9961076 213.039063,33.3568667 213.719189,33.9873722 C215.739313,35.8600279 217.769437,37.7220508 219.813358,39.5685041 C222.121077,41.6533115 224.449681,43.7148277 226.761577,45.7949516 C226.874362,45.8963439 226.940184,46.0716601 226.980944,46.2250776 C227.017526,46.3631787 226.990184,46.5183684 226.990184,46.6659631 C226.990184,65.8810012 226.99145,85.0960392 226.987273,104.311077 C226.98702,105.568291 226.675501,106.71715 225.48892,107.376896 C225.047402,107.622465 224.50639,107.817275 224.010441,107.818035 C208.106918,107.840693 192.203394,107.838288 176.299744,107.834364 C174.608734,107.833984 173.340634,106.404492 173.32785,104.495887 C173.316204,102.724244 173.325318,100.952348 173.325318,99.1807043 C173.325318,89.5836283 173.325318,79.9868054 173.325318,70.3897294 Z M222.685177,108.976337 C222.457076,110.378107 221.788976,111.461144 220.422522,111.999751 C220.059991,112.142662 219.656194,112.25608 219.271131,112.256459 C203.279886,112.269117 187.288641,112.268358 171.297397,112.2657 C169.654361,112.265447 168.011198,110.622158 168.007021,108.960388 C167.996262,104.741026 168.001072,100.521665 168.001072,96.302303 C168.000692,77.7372641 168.000819,59.1722252 168.000945,40.6071863 C168.000945,37.6398484 169.347399,36.300483 172.309674,36.320483 C172.309674,59.1574151 172.309421,81.9943471 172.311699,104.831279 C172.311699,105.103431 172.308028,105.383557 172.366762,105.646341 C172.8198,107.670642 174.517392,108.97254 176.695111,108.972919 C192.025091,108.974945 207.355197,108.975451 222.685177,108.976337 Z M221.923647,82.7609157 L201.373167,82.7609157 C201.347091,82.571802 201.306585,82.4134478 201.306079,82.254967 C201.301142,80.8416777 201.318484,79.4280087 201.29418,78.0150992 C201.286459,77.5694035 201.432914,77.4416822 201.871648,77.4424417 C208.41088,77.4542138 214.950111,77.454467 221.489217,77.4420619 C221.937824,77.4411759 222.065545,77.586239 222.058963,78.0223143 C222.036305,79.561806 222.04871,81.1019305 222.047824,82.6418019 C222.006431,82.6815487 221.965039,82.7212955 221.923647,82.7609157 M201.332851,76.2556711 L221.993836,76.2556711 L221.993836,71.684791 L201.332851,71.684791 L201.332851,76.2556711 Z M201.30299,61.0311974 L222.050684,61.0311974 L222.050684,63.2406882 C222.050684,63.8729658 222.024735,64.5067625 222.059165,65.1371414 C222.084355,65.5973939 221.899672,65.7066343 221.472457,65.7004318 C220.018535,65.6792926 218.56398,65.6923305 217.109678,65.6923305 C212.072343,65.6923305 207.034881,65.6835964 201.997546,65.7048622 C201.442357,65.7071406 201.271345,65.5647358 201.289699,65.000939 C201.331724,63.7004344 201.30299,62.3976513 201.30299,61.0311974 M222.049482,66.883329 C222.049482,67.9983908 222.064672,69.0514274 222.031001,70.1030716 C222.026697,70.2405397 221.785178,70.388894 221.628343,70.4953495 C221.556065,70.5443368 221.42328,70.5044634 221.317837,70.5044634 C214.888732,70.50459 208.459626,70.4972483 202.030647,70.5171217 C201.453813,70.5188938 201.259256,70.3721851 201.290015,69.781553 C201.339003,68.837377 201.303053,67.8887707 201.303053,66.883329 L222.049482,66.883329 Z M192.505103,82.6738905 L185.862074,82.6738905 L185.862074,79.1287053 C185.862074,77.4503531 185.862074,77.4503531 187.528527,77.4503531 L192.505103,77.4503531 L192.505103,82.6738905 Z M200.276435,82.6573842 C198.544538,82.6573842 196.928464,82.6627006 195.31239,82.6544728 C194.7691,82.651688 193.994291,82.8211815 193.743405,82.5395363 C193.450747,82.2110557 193.596317,81.4749807 193.587203,80.915108 C193.57138,79.9463751 193.59581,78.9770093 193.576443,78.008403 C193.568722,77.623087 193.651127,77.4372645 194.093784,77.4420746 C195.989352,77.4622011 197.885298,77.4428341 199.780739,77.464353 C199.947068,77.4662518 200.253143,77.6582768 200.255169,77.7665045 C200.285802,79.4029581 200.276435,81.0401711 200.276435,82.6573842 M193.638431,76.2664306 L200.25184,76.2664306 L200.25184,71.6744113 L193.638431,71.6744113 L193.638431,76.2664306 Z M185.906289,76.2784559 L192.505394,76.2784559 L192.505394,71.6622594 L185.906289,71.6622594 L185.906289,76.2784559 Z M200.24027,65.6904445 C198.090146,65.6904445 196.00863,65.6969001 193.927367,65.6731027 C193.811418,65.6718369 193.601165,65.4212043 193.59876,65.2836095 C193.574076,63.8965228 193.583823,62.5088031 193.583823,61.0628556 L200.24027,61.0628556 L200.24027,65.6904445 Z M192.533976,61.0080709 L192.533976,65.6278116 C192.355242,65.6509762 192.196255,65.6890774 192.037142,65.6894571 C190.205878,65.6937609 188.374488,65.6783179 186.543478,65.7017356 C186.047782,65.7079381 185.855884,65.5246472 185.859428,65.0469263 C185.868415,63.8473076 185.851833,62.6471826 185.87601,61.4479437 C185.878922,61.2993363 186.064365,61.0279442 186.167782,61.026805 C188.2674,61.0018683 190.367523,61.0080709 192.533976,61.0080709 M179.176298,82.7035107 L184.784518,82.7035107 L184.784518,77.5004796 L179.176298,77.5004796 L179.176298,82.7035107 Z M179.176045,76.2579496 L184.785531,76.2579496 L184.785531,71.6827657 L179.176045,71.6827657 L179.176045,76.2579496 Z M179.194779,65.6612546 L184.779202,65.6612546 L184.779202,61.0591088 L179.194779,61.0591088 L179.194779,65.6612546 Z M200.246574,66.8856834 L200.246574,70.577957 C199.992144,70.5897292 199.76784,70.6123874 199.544043,70.6084633 C197.759109,70.5766912 195.974301,70.5275773 194.189113,70.5130204 C193.74038,70.5093495 193.584304,70.3126409 193.584177,69.9099832 C193.583798,68.922263 193.584051,67.9345428 193.584051,66.8856834 L200.246574,66.8856834 Z M185.862327,66.8535948 L192.503457,66.8535948 L192.503457,70.6097924 C191.607762,70.6097924 190.692194,70.6233367 189.777258,70.6062481 C188.707513,70.5863747 187.638021,70.5100457 186.568782,70.5171343 C186.039036,70.5206786 185.850808,70.3244763 185.858276,69.8213124 C185.872453,68.8570099 185.862327,67.8924542 185.862327,66.8535948 M179.173893,70.4634002 L184.784392,70.4634002 L184.784392,66.8749239 L179.173893,66.8749239 L179.173893,70.4634002 Z" id="ic1"></path>
                </g>
            </g>
        </g>
    </g>
</svg>