<?xml version="1.0" encoding="UTF-8"?>
<svg width="74px" height="79px" viewBox="0 0 74 79" version="1.1" xmlns="http://www.w3.org/2000/svg" xmlns:xlink="http://www.w3.org/1999/xlink">
    <!-- Generator: Sketch 51.2 (57519) - http://www.bohemiancoding.com/sketch -->
    <title>ic4</title>
    <desc>Created with Sketch.</desc>
    <defs></defs>
    <g id="1920" stroke="none" stroke-width="1" fill="none" fill-rule="evenodd">
        <g id="от-1920-главная-автоспец" transform="translate(-708.000000, -1908.000000)" fill="#CBCED4" fill-rule="nonzero">
            <g id="Stacked-Group" transform="translate(-1.000000, 0.000000)">
                <g id="утп" transform="translate(112.000000, 1637.000000)">
                    <path d="M670.938033,340.689363 C670.977308,340.847335 671,341.00618 671,341.165025 C671,345.795971 654.434725,349.549778 633.998691,349.549778 C613.56353,349.549778 596.998254,345.795971 597,341.165025 C597,341.004435 597.021819,340.844717 597.061967,340.684999 C597.054112,340.458077 597.04713,340.22941 597.04713,340.012089 C597.064585,331.447545 603.580726,329.959463 611.090085,328.24446 C612.153998,328.000955 613.227511,327.758324 614.292297,327.486018 C614.712975,327.376921 615.176419,327.270442 615.665173,327.154363 C617.211731,326.790416 618.925861,326.38283 620.432271,325.830363 C622.252008,325.163563 623.760164,324.290788 624.276847,323.023518 C624.584936,322.265949 624.756,320.698444 624.498532,319.479177 C624.382452,318.923219 623.940828,318.298312 623.428509,317.580018 C623.191987,317.250982 622.95721,316.912345 622.770437,316.603383 C621.577353,314.620437 620.786618,312.881869 620.211459,310.961763 C620.068324,310.495701 619.981047,309.991237 619.892896,309.504228 C619.811728,309.045148 619.732306,308.602651 619.611863,308.189829 C618.42227,307.667909 617.157619,305.729475 616.504783,303.228974 C616.224622,302.16157 616.094578,301.130822 616.095451,300.217026 L651.901931,300.217026 C651.901931,301.131695 651.771887,302.162442 651.494345,303.229847 C650.838018,305.729475 649.574239,307.668782 648.386392,308.190701 C648.267694,308.602651 648.187399,309.046894 648.105358,309.505101 C648.018953,309.991237 647.92993,310.495701 647.786795,310.962636 C647.211636,312.880996 646.419156,314.62131 645.227818,316.604255 C645.041917,316.914091 644.805395,317.251855 644.569745,317.580891 C644.058299,318.298312 643.616675,318.924092 643.49885,319.479177 C643.241381,320.699317 643.413318,322.267694 643.720535,323.024391 C644.237218,324.292533 645.747119,325.165308 647.565983,325.832109 C649.07152,326.38283 650.786524,326.790416 652.332209,327.155236 C652.819218,327.270442 653.283534,327.377794 653.705957,327.487763 C654.76987,327.758324 655.843384,328.000955 656.907297,328.24446 C664.418401,329.959463 670.934542,331.448418 670.951997,340.012089 L670.951997,340.012962 C670.951997,340.233774 670.946761,340.459823 670.938033,340.689363 Z M614.38132,296.863823 C612.854836,296.863823 611.619859,295.627101 611.619859,294.103235 C611.619859,292.577624 612.854836,291.340901 614.38132,291.340901 L615.13278,291.340901 C615.13278,284.002607 619.333447,277.649675 625.46033,274.543468 L627.020852,283.388173 C627.142168,284.089884 627.752238,284.581257 628.440858,284.581257 C628.523771,284.581257 628.608431,284.575147 628.69309,284.56031 C629.478588,284.421539 630.00138,283.672697 629.863481,282.888072 L628.081274,272.780462 C628.751566,271.711312 629.935922,271 631.289596,271 L636.632727,271 C637.987274,271 639.174248,271.711312 639.841922,272.780462 L638.060587,282.888072 C637.922689,283.67357 638.446354,284.421539 639.230106,284.56031 C639.315638,284.574274 639.400297,284.581257 639.482338,284.581257 C640.170958,284.581257 640.779282,284.089011 640.902344,283.388173 L642.464611,274.542595 C648.589748,277.648802 652.791289,284.001734 652.791289,291.340029 L653.542748,291.340029 C655.070105,291.340029 656.304209,292.575878 656.304209,294.102362 C656.304209,295.627101 655.070105,296.863823 653.542748,296.863823 L614.38132,296.863823 Z" id="ic4"></path>
                </g>
            </g>
        </g>
    </g>
</svg>