<?xml version="1.0" encoding="utf-8"?><svg xmlns="http://www.w3.org/2000/svg" xmlns:xlink="http://www.w3.org/1999/xlink"><symbol viewBox="0 0 240.823 240.823" id="angle-right" xmlns="http://www.w3.org/2000/svg"><path d="M183.189 111.816L74.892 3.555c-4.752-4.74-12.451-4.74-17.215 0-4.752 4.74-4.752 12.439 0 17.179l99.707 99.671-99.695 99.671c-4.752 4.74-4.752 12.439 0 17.191 4.752 4.74 12.463 4.74 17.215 0l108.297-108.261c4.68-4.691 4.68-12.511-.012-17.19z"/></symbol><symbol viewBox="0 0 8 13" id="arrow" xmlns="http://www.w3.org/2000/svg"><path d="M1.69 11.948L.07 10.385c-.047-.045-.07-.09-.07-.135 0-.045.023-.09.068-.136L4.164 6.02l-.001-.001-.602-.602L.07 1.935c-.045-.046-.068-.091-.068-.136 0-.045.023-.09.069-.136L1.665.069c.046-.045.091-.068.136-.068.045 0 .09.023.136.068l5.611 5.585a.517.517 0 01.137.364.517.517 0 01-.137.364l-5.587 5.566c-.045.046-.09.07-.136.07-.045 0-.09-.024-.136-.07z"/></symbol><symbol viewBox="0 0 482.974 482.974" id="businessman" xmlns="http://www.w3.org/2000/svg"><path d="M155.504 204.774c4.4 28.6 26.5 65 62.8 77.8 14.9 5.2 31.2 5.3 46.1-.1 35.7-12.9 58.5-49.2 63-77.7 4.8-.4 11.1-7.1 17.9-31.2 9.3-32.9-.6-37.8-9-37 1.6-4.5 2.8-9.1 3.6-13.5 14.2-85.3-27.8-88.2-27.8-88.2s-7-13.4-25.3-23.5c-12.3-7.3-29.4-12.9-51.9-11-7.3.3-14.2 1.8-20.7 3.9-8.3 2.8-15.9 6.9-22.8 11.7-8.4 5.3-16.4 11.9-23.4 19.4-11.1 11.4-21 26.1-25.3 44.4-3.6 13.7-2.8 28 .2 43.4.8 4.5 2 9 3.6 13.5-8.4-.8-18.3 4.1-9 37 6.9 24 13.2 30.7 18 31.1z"/><path d="M406.404 316.674c-51.1-13-92.6-42.2-92.6-42.2l-32.4 102.5-6.1 19.3-.1-.3-5.3 16.4-17.1-48.5c42-58.6-8.5-58-11.3-57.9-2.8-.1-53.3-.7-11.3 57.9l-17.1 48.5-5.3-16.4-.1.3-6.1-19.3-32.5-102.5s-41.5 29.2-92.6 42.2c-38.1 9.7-39.9 53.7-38.4 75.4 0 0 2.2 29.5 4.4 42.5 0 0 74.4 48.3 199 48.4 124.6 0 199-48.4 199-48.4 2.2-13 4.4-42.5 4.4-42.5 1.4-21.7-.4-65.7-38.5-75.4z"/></symbol><symbol viewBox="0 0 24 24" id="check" xmlns="http://www.w3.org/2000/svg"><path d="M20.293 5.293L9 16.586l-4.293-4.293-1.414 1.414L9 19.414 21.707 6.707l-1.414-1.414z"/></symbol><symbol viewBox="0 0 485.211 485.211" id="credit-card" xmlns="http://www.w3.org/2000/svg"><path d="M454.889 90.976H30.327C13.562 90.976 0 104.541 0 121.303v242.602c0 16.769 13.564 30.331 30.327 30.331h424.562c16.759 0 30.322-13.562 30.322-30.331V121.303c0-16.762-13.564-30.327-30.322-30.327zm0 272.928H30.327V212.28h424.562v151.624zm0-212.277H30.327v-30.324h424.562v30.324z"/><path d="M60.651 303.256h60.653v30.327H60.651zm90.977 0h60.654v30.327h-60.654zm166.795 30.327c11.696 0 22.271-4.561 30.322-11.812 8.056 7.252 18.631 11.812 30.331 11.812 25.109 0 45.485-20.372 45.485-45.49 0-25.109-20.376-45.488-45.485-45.488-11.7 0-22.275 4.562-30.331 11.819-8.051-7.257-18.626-11.819-30.322-11.819-25.118 0-45.49 20.379-45.49 45.488 0 25.118 20.372 45.49 45.49 45.49z"/></symbol><symbol viewBox="0 0 550.795 550.795" id="envelope" xmlns="http://www.w3.org/2000/svg"><path d="M501.613 491.782c12.381 0 23.109-4.088 32.229-12.16L377.793 323.567a2878.213 2878.213 0 00-10.801 7.767c-11.678 8.604-21.156 15.318-28.434 20.129-7.277 4.822-16.959 9.737-29.045 14.755-12.094 5.024-23.361 7.528-33.813 7.528h-.612c-10.453 0-21.72-2.503-33.813-7.528-12.093-5.018-21.775-9.933-29.045-14.755-7.277-4.811-16.75-11.524-28.434-20.129a1351.934 1351.934 0 00-10.771-7.809L16.946 479.622c9.119 8.072 19.854 12.16 32.234 12.16h452.433zM31.047 225.299C19.37 217.514 9.015 208.598 0 198.555V435.98l137.541-137.541c-27.516-19.21-62.969-43.562-106.494-73.14zm489.012 0c-41.865 28.336-77.447 52.73-106.75 73.195l137.486 137.492V198.555c-8.815 9.841-19.059 18.751-30.736 26.744z"/><path d="M501.613 59.013H49.181c-15.784 0-27.919 5.33-36.42 15.979C4.253 85.646.006 98.97.006 114.949c0 12.907 5.636 26.892 16.903 41.959 11.267 15.061 23.256 26.891 35.961 35.496 6.965 4.921 27.969 19.523 63.012 43.801a20367.497 20367.497 0 0149.505 34.395 8855.122 8855.122 0 0131.022 21.701c.985.691 2.534 1.799 4.59 3.269 2.215 1.591 5.018 3.61 8.476 6.107 6.659 4.816 12.191 8.709 16.597 11.683 4.4 2.975 9.731 6.298 15.985 9.988 6.249 3.685 12.143 6.456 17.675 8.299 5.533 1.842 10.655 2.766 15.367 2.766h.612c4.711 0 9.834-.924 15.368-2.766 5.531-1.843 11.42-4.608 17.674-8.299 6.248-3.69 11.572-7.02 15.986-9.988 4.406-2.974 9.938-6.866 16.598-11.683 3.451-2.497 6.254-4.517 8.469-6.102a643.575 643.575 0 014.596-3.274c6.684-4.651 17.1-11.892 31.104-21.616 25.482-17.705 63.01-43.764 112.742-78.281 14.957-10.447 27.453-23.054 37.496-37.803 10.025-14.749 15.051-30.22 15.051-46.408 0-13.525-4.873-25.098-14.598-34.737-9.736-9.627-21.265-14.443-34.584-14.443z"/></symbol><symbol viewBox="0 0 369.793 369.792" id="gear" xmlns="http://www.w3.org/2000/svg"><path d="M320.83 140.434l-1.759-.627-6.87-16.399.745-1.685c20.812-47.201 19.377-48.609 15.925-52.031L301.11 42.61c-1.135-1.126-3.128-1.918-4.846-1.918-1.562 0-6.293 0-47.294 18.57l-1.644.738-16.916-6.812-.679-1.684C210.45 3.762 208.475 3.762 203.677 3.762h-39.205c-4.78 0-6.957 0-24.836 47.825l-.673 1.741-16.828 6.86-1.609-.669c-27.752-11.7-43.956-17.633-48.18-17.633-1.714 0-3.714.769-4.854 1.892l-27.787 27.16c-3.525 3.477-4.987 4.933 16.915 51.149l.805 1.714-6.881 16.381-1.684.651C0 159.715 0 161.556 0 166.474v38.418c0 4.931 0 6.979 48.957 24.524l1.75.618 6.882 16.333-.739 1.669c-20.812 47.223-19.492 48.501-15.949 52.025L68.62 327.18c1.162 1.117 3.173 1.915 4.888 1.915 1.552 0 6.272 0 47.3-18.561l1.643-.769 16.927 6.846.658 1.693c19.293 47.726 21.275 47.726 26.076 47.726h39.217c4.924 0 6.966 0 24.859-47.857l.667-1.742 16.855-6.814 1.604.654c27.729 11.733 43.925 17.654 48.122 17.654 1.699 0 3.717-.745 4.876-1.893l27.832-27.219c3.501-3.495 4.96-4.924-16.981-51.096l-.816-1.734 6.869-16.31 1.64-.643c48.938-18.981 48.938-20.831 48.938-25.755V164.88c-.001-4.93-.001-6.966-48.964-24.446zM184.896 247.203c-35.038 0-63.542-27.959-63.542-62.3 0-34.342 28.505-62.264 63.542-62.264 35.023 0 63.522 27.928 63.522 62.264.001 34.335-28.498 62.3-63.522 62.3z"/></symbol><symbol viewBox="0 -28 512 512" id="heart" xmlns="http://www.w3.org/2000/svg"><path d="M471.383 44.578C444.879 15.832 408.512 0 368.973 0c-29.555 0-56.621 9.344-80.45 27.77C276.5 37.07 265.605 48.45 256 61.73c-9.602-13.277-20.5-24.66-32.527-33.96C199.648 9.344 172.582 0 143.027 0c-39.539 0-75.91 15.832-102.414 44.578C14.426 72.988 0 111.801 0 153.871c0 43.3 16.137 82.938 50.781 124.742 30.992 37.395 75.535 75.356 127.117 119.313 17.614 15.012 37.579 32.027 58.309 50.152A30.023 30.023 0 00256 455.516a30.03 30.03 0 0019.785-7.43c20.73-18.129 40.707-35.152 58.328-50.172 51.575-43.95 96.117-81.906 127.11-119.305C495.867 236.81 512 197.172 512 153.867c0-42.066-14.426-80.879-40.617-109.289zm0 0"/></symbol><symbol viewBox="-0.709 -11.555 141.732 141.732" id="heart2" xmlns="http://www.w3.org/2000/svg"><path d="M140.314 37.654C140.314 16.858 123.402 0 102.537 0c-13.744 0-25.77 7.317-32.379 18.255C63.549 7.317 51.521 0 37.777 0 16.912 0 0 16.858 0 37.654c0 10.821 4.588 20.57 11.922 27.438h-.01l54.084 51.584a5.389 5.389 0 008.068.249l54.346-51.833h-.016c7.335-6.867 11.92-16.616 11.92-27.438"/></symbol><symbol viewBox="0 0 32 32" id="icon_credit_card" xmlns="http://www.w3.org/2000/svg"><defs><style>.jcls-1{fill:none;stroke:#000;stroke-linejoin:round;stroke-width:2px}</style></defs><g data-name="397-Credit Card" id="j_397-Credit_Card"><path class="jcls-1" d="M14 26H1V4h30v9M1 9h30M1 15h13M4 20h2m2 0h2"/><circle class="jcls-1" cx="24" cy="21" r="7"/><path class="jcls-1" d="M21 21l2 2 4-4"/></g></symbol><symbol viewBox="0 0 26 26" id="icon_delivery_lorry_mkad" xmlns="http://www.w3.org/2000/svg"><path d="M17.31 5.495v-.284a.75.75 0 00-.75-.75H1.75a.75.75 0 00-.75.75v13.578c0 .414.336.75.75.75h3.095c.328 1.15 1.378 2 2.633 2s2.304-.85 2.632-2h7.708c.33 1.15 1.378 2 2.633 2s2.304-.85 2.633-2h.994c.031 0 .057-.014.087-.018.03.004.056.018.087.018a.75.75 0 00.75-.75v-5.74c0-3.956-3.387-7.211-7.69-7.554zm6.162 7.054h-2.817c-.718-.196-.864-1.484-.864-3.488V7.665c2.044.948 3.483 2.763 3.681 4.884zm-4.681-5.26v1.772c0 2.174.13 4.152 1.704 4.478.033.007.068.01.102.01H23.5v4.49h-.418c-.329-1.15-1.378-2-2.633-2s-2.304.85-2.633 2H10.11A2.73 2.73 0 009.548 17h7.013c.2 0 .372-.12.451-.292a.737.737 0 00.299-.583V6.998c.512.049 1.007.15 1.48.291zM15.811 16H2.499V5.96h13.312V16zM2.499 17h2.906a2.73 2.73 0 00-.561 1.04H2.499V17zm4.978 3.04a1.251 1.251 0 010-2.5c.688 0 1.248.558 1.25 1.247l-.001.002v.003a1.25 1.25 0 01-1.25 1.247zm12.973 0a1.251 1.251 0 010-2.5 1.251 1.251 0 010 2.5z"/></symbol><symbol viewBox="0 -64 512 512" id="id-card" xmlns="http://www.w3.org/2000/svg"><path d="M453.332 0H58.668C26.305 0 0 26.305 0 58.668v266.664C0 357.695 26.305 384 58.668 384h394.664C485.695 384 512 357.695 512 325.332V58.668C512 26.305 485.695 0 453.332 0zM160 85.332c29.398 0 53.332 23.938 53.332 53.336C213.332 168.062 189.398 192 160 192s-53.332-23.938-53.332-53.332c0-29.398 23.934-53.336 53.332-53.336zm96 197.336c0 8.832-7.168 16-16 16H80c-8.832 0-16-7.168-16-16V272c0-32.363 26.305-58.668 58.668-58.668h74.664C229.695 213.332 256 239.637 256 272zm176 16H314.668c-8.832 0-16-7.168-16-16s7.168-16 16-16H432c8.832 0 16 7.168 16 16s-7.168 16-16 16zm0-85.336H314.668c-8.832 0-16-7.168-16-16s7.168-16 16-16H432c8.832 0 16 7.168 16 16s-7.168 16-16 16zM432 128H314.668c-8.832 0-16-7.168-16-16s7.168-16 16-16H432c8.832 0 16 7.168 16 16s-7.168 16-16 16zm0 0"/></symbol><symbol viewBox="0 0 511.626 511.627" id="list-on-window" xmlns="http://www.w3.org/2000/svg"><path d="M498.208 68.235c-8.945-8.947-19.701-13.418-32.261-13.418H45.682c-12.562 0-23.318 4.471-32.264 13.418C4.471 77.184 0 87.935 0 100.499v310.633c0 12.566 4.471 23.312 13.418 32.265 8.945 8.945 19.701 13.414 32.264 13.414h420.266c12.56 0 23.315-4.469 32.261-13.414 8.949-8.953 13.418-19.705 13.418-32.265V100.499c-.001-12.564-4.469-23.319-13.419-32.264zm-23.13 342.89c0 2.475-.903 4.616-2.71 6.424-1.804 1.81-3.949 2.706-6.42 2.706H45.682c-2.474 0-4.615-.896-6.423-2.706-1.809-1.808-2.712-3.949-2.712-6.424V173.588c0-2.475.903-4.617 2.712-6.427 1.809-1.806 3.949-2.709 6.423-2.709h420.266c2.471 0 4.613.9 6.42 2.709 1.807 1.81 2.71 3.952 2.71 6.427v237.537z"/><path d="M100.5 347.179H82.228c-2.474 0-4.615.896-6.423 2.703-1.807 1.811-2.712 3.953-2.712 6.427v18.271c0 2.478.905 4.616 2.712 6.427 1.809 1.81 3.949 2.707 6.423 2.707H100.5c2.473 0 4.615-.897 6.423-2.707 1.807-1.811 2.712-3.949 2.712-6.427v-18.271c0-2.474-.905-4.616-2.712-6.427-1.808-1.8-3.95-2.703-6.423-2.703zm0-73.098H82.228c-2.474 0-4.615.91-6.423 2.714-1.807 1.811-2.712 3.953-2.712 6.424v18.273c0 2.479.905 4.61 2.712 6.428 1.809 1.8 3.949 2.706 6.423 2.706H100.5c2.473 0 4.615-.906 6.423-2.706 1.807-1.817 2.712-3.949 2.712-6.428v-18.273c0-2.471-.905-4.62-2.712-6.424-1.808-1.804-3.95-2.714-6.423-2.714zm0-73.083H82.228c-2.474 0-4.615.902-6.423 2.708-1.807 1.812-2.712 3.949-2.712 6.423v18.276c0 2.473.905 4.615 2.712 6.424 1.809 1.803 3.949 2.712 6.423 2.712H100.5c2.473 0 4.615-.905 6.423-2.712 1.807-1.809 2.712-3.951 2.712-6.424v-18.276c0-2.474-.905-4.615-2.712-6.423-1.808-1.804-3.95-2.708-6.423-2.708zm328.899 146.181H155.313c-2.473 0-4.615.896-6.423 2.703-1.807 1.811-2.712 3.953-2.712 6.427v18.271c0 2.478.905 4.616 2.712 6.427 1.809 1.81 3.951 2.707 6.423 2.707h274.089c2.479 0 4.617-.897 6.428-2.707 1.803-1.811 2.707-3.949 2.707-6.427v-18.271c0-2.474-.907-4.616-2.711-6.427-1.807-1.807-3.95-2.703-6.427-2.703zm0-73.098H155.313c-2.473 0-4.615.91-6.423 2.714-1.807 1.811-2.712 3.953-2.712 6.424v18.273c0 2.479.905 4.61 2.712 6.428 1.809 1.8 3.951 2.706 6.423 2.706h274.089c2.479 0 4.617-.906 6.428-2.706 1.803-1.817 2.707-3.949 2.707-6.428v-18.273c0-2.471-.907-4.62-2.711-6.424-1.807-1.804-3.95-2.714-6.427-2.714zm0-73.083H155.313c-2.473 0-4.615.902-6.423 2.708-1.807 1.812-2.712 3.949-2.712 6.423v18.276c0 2.473.905 4.619 2.712 6.424 1.809 1.803 3.951 2.712 6.423 2.712h274.089c2.479 0 4.624-.905 6.428-2.712 1.803-1.809 2.707-3.951 2.707-6.424v-18.276c0-2.474-.907-4.615-2.711-6.423-1.807-1.804-3.95-2.708-6.427-2.708z"/></symbol><symbol viewBox="0 0 475.084 475.084" id="loop" xmlns="http://www.w3.org/2000/svg"><path d="M464.524 412.846l-97.929-97.925c23.6-34.068 35.406-72.047 35.406-113.917 0-27.218-5.284-53.249-15.852-78.087-10.561-24.842-24.838-46.254-42.825-64.241-17.987-17.987-39.396-32.264-64.233-42.826C254.246 5.285 228.217.003 200.999.003c-27.216 0-53.247 5.282-78.085 15.847C98.072 26.412 76.66 40.689 58.673 58.676c-17.989 17.987-32.264 39.403-42.827 64.241C5.282 147.758 0 173.786 0 201.004c0 27.216 5.282 53.238 15.846 78.083 10.562 24.838 24.838 46.247 42.827 64.234 17.987 17.993 39.403 32.264 64.241 42.832 24.841 10.563 50.869 15.844 78.085 15.844 41.879 0 79.852-11.807 113.922-35.405l97.929 97.641c6.852 7.231 15.406 10.849 25.693 10.849 9.897 0 18.467-3.617 25.694-10.849 7.23-7.23 10.848-15.796 10.848-25.693.003-10.082-3.518-18.651-10.561-25.694zM291.363 291.358c-25.029 25.033-55.148 37.549-90.364 37.549-35.21 0-65.329-12.519-90.36-37.549-25.031-25.029-37.546-55.144-37.546-90.36 0-35.21 12.518-65.334 37.546-90.36 25.026-25.032 55.15-37.546 90.36-37.546 35.212 0 65.331 12.519 90.364 37.546 25.033 25.026 37.548 55.15 37.548 90.36 0 35.216-12.519 65.331-37.548 90.36z"/></symbol><symbol viewBox="0 0 53.01 53.01" id="money" xmlns="http://www.w3.org/2000/svg"><path d="M39.942 22.626a7.112 7.112 0 01-6.326 3.879c-2.757 0-5.146-1.58-6.326-3.879H0v24.566h40.269a9.009 9.009 0 01-2.128-5.818c0-4.324 3.051-7.945 7.111-8.836v-9.912h-5.31zM22.626 42.667a7.759 7.759 0 11.002-15.518 7.759 7.759 0 01-.002 15.518z"/><circle cx="47.19" cy="41.37" r="5.818"/><circle cx="33.616" cy="19.394" r="3.879"/><path d="M8.477 5.818L6.026 19.394h20.479a7.12 7.12 0 017.111-7.111 7.12 7.12 0 017.111 7.111h7.757v13.032c.385.056.763.134 1.131.236l3.395-18.805L8.477 5.818z"/></symbol><symbol viewBox="0 0 482.14 482.14" id="pdf-file" xmlns="http://www.w3.org/2000/svg"><path d="M142.024 310.194c0-8.007-5.556-12.782-15.359-12.782-4.003 0-6.714.395-8.132.773v25.69c1.679.378 3.743.504 6.588.504 10.449 0 16.903-5.279 16.903-14.185zm60.685-12.513c-4.39 0-7.227.379-8.905.772v56.896c1.679.394 4.39.394 6.841.394 17.809.126 29.424-9.677 29.424-30.449.126-18.063-10.458-27.613-27.36-27.613z"/><path d="M315.458 0H121.811c-28.29 0-51.315 23.041-51.315 51.315v189.754h-5.012c-11.418 0-20.678 9.251-20.678 20.679v125.404c0 11.427 9.259 20.677 20.678 20.677h5.012v22.995c0 28.305 23.025 51.315 51.315 51.315h264.223c28.272 0 51.3-23.011 51.3-51.315V121.449L315.458 0zM99.053 284.379c6.06-1.024 14.578-1.796 26.579-1.796 12.128 0 20.772 2.315 26.58 6.965 5.548 4.382 9.292 11.615 9.292 20.127 0 8.51-2.837 15.745-7.999 20.646-6.714 6.32-16.643 9.157-28.258 9.157-2.585 0-4.902-.128-6.714-.379v31.096h-19.48v-85.816zm286.981 166.334H121.811c-10.954 0-19.874-8.92-19.874-19.889v-22.995h246.31c11.42 0 20.679-9.25 20.679-20.677V261.748c0-11.428-9.259-20.679-20.679-20.679h-246.31V51.315c0-10.938 8.921-19.858 19.874-19.858l181.89-.19V98.5c0 19.638 15.934 35.587 35.587 35.587l65.862-.189.741 296.925c0 10.97-8.904 19.89-19.857 19.89zm-211.969-80.912v-85.422c7.225-1.15 16.642-1.796 26.58-1.796 16.516 0 27.226 2.963 35.618 9.282 9.031 6.714 14.704 17.416 14.704 32.781 0 16.643-6.06 28.133-14.453 35.224-9.157 7.612-23.096 11.222-40.125 11.222-10.198 0-17.423-.646-22.324-1.291zm140.827-50.575v15.996h-31.23v34.973h-19.74v-86.966h53.16v16.122h-33.42v19.875h31.23z"/></symbol><symbol viewBox="0 0 487.724 487.724" id="placeholder" xmlns="http://www.w3.org/2000/svg"><path d="M236.925.124c-96.9 3.4-177.4 79-186.7 175.5-1.9 19.3-.8 38 2.6 55.9 0 0 .3 2.1 1.3 6.1 3 13.4 7.5 26.4 13.1 38.6 19.5 46.2 64.6 123.5 165.8 207.6 6.2 5.2 15.3 5.2 21.6 0 101.2-84 146.3-161.3 165.9-207.7 5.7-12.2 10.1-25.1 13.1-38.6.9-3.9 1.3-6.1 1.3-6.1 2.3-12 3.5-24.3 3.5-36.9 0-109.8-90.9-198.3-201.5-194.4zm6.9 291.2c-52.2 0-94.5-42.3-94.5-94.5s42.3-94.5 94.5-94.5 94.5 42.3 94.5 94.5-42.3 94.5-94.5 94.5z"/></symbol><symbol viewBox="0 0 510 510" id="print" xmlns="http://www.w3.org/2000/svg"><path d="M433.5 153h-357C33.15 153 0 186.15 0 229.5v153h102v102h306v-102h102v-153c0-43.35-33.15-76.5-76.5-76.5zM357 433.5H153V306h204v127.5zM433.5 255c-15.3 0-25.5-10.2-25.5-25.5s10.2-25.5 25.5-25.5 25.5 10.2 25.5 25.5-10.2 25.5-25.5 25.5zM408 25.5H102v102h306v-102z"/></symbol><symbol viewBox="0 0 12 8" id="selector-arrow" xmlns="http://www.w3.org/2000/svg"><path d="M.07 1.845L1.633.225c.09-.092.182-.092.273 0l4.095 4.094L10.083.227c.091-.091.182-.091.274 0l1.593 1.594c.091.09.091.182 0 .273L6.365 7.705c-.182.183-.547.183-.73 0L.07 2.118c-.093-.09-.093-.182 0-.273z"/></symbol><symbol viewBox="0 0 16 16" id="setup" xmlns="http://www.w3.org/2000/svg"><path d="M0 1h16v3H0V1zm0 5h16v3H0V6zm0 5h16v3H0v-3z"/></symbol><symbol viewBox="0 -31 512 512" id="shopping-cart" xmlns="http://www.w3.org/2000/svg"><path d="M166 300.004h271.004c6.71 0 12.598-4.438 14.414-10.883l60.004-210.004c1.289-4.527.406-9.39-2.434-13.152A15.034 15.034 0 00497.004 60H131.37l-10.723-48.25A15 15 0 00106 0H15C6.71 0 0 6.71 0 15c0 8.293 6.71 15 15 15h78.96l54.169 243.75C132.19 280.68 121 296.543 121 315.004c0 24.812 20.187 45 45 45h271.004c8.293 0 15-6.707 15-15 0-8.29-6.707-15-15-15H166c-8.262 0-15-6.723-15-15s6.738-15 15-15zm-15 105c0 24.816 20.188 45 45.004 45 24.812 0 45-20.184 45-45 0-24.813-20.188-45-45-45-24.816 0-45.004 20.187-45.004 45zm211.004 0c0 24.816 20.187 45 45 45 24.816 0 45-20.184 45-45 0-24.813-20.184-45-45-45-24.813 0-45 20.187-45 45zm0 0"/></symbol><symbol viewBox="0 0 20 16" id="slider-arrow" xmlns="http://www.w3.org/2000/svg"><path d="M19.707 8.707a1 1 0 000-1.414L13.343.929a1 1 0 10-1.414 1.414L17.586 8l-5.657 5.657a1 1 0 001.414 1.414l6.364-6.364zM0 9h19V7H0v2z"/></symbol><symbol viewBox="0 0 49.94 49.94" id="star" xmlns="http://www.w3.org/2000/svg"><path d="M48.856 22.73a3.56 3.56 0 00.906-3.671 3.56 3.56 0 00-2.892-2.438l-12.092-1.757a1.58 1.58 0 01-1.19-.865L28.182 3.043a3.56 3.56 0 00-3.212-1.996 3.56 3.56 0 00-3.211 1.996L16.352 14c-.23.467-.676.79-1.191.865L3.069 16.622A3.56 3.56 0 00.177 19.06a3.56 3.56 0 00.906 3.671l8.749 8.528c.373.364.544.888.456 1.4L8.224 44.701a3.506 3.506 0 00.781 2.904c1.066 1.267 2.927 1.653 4.415.871l10.814-5.686a1.619 1.619 0 011.472 0l10.815 5.686a3.544 3.544 0 001.666.417c1.057 0 2.059-.47 2.748-1.288a3.505 3.505 0 00.781-2.904l-2.065-12.042a1.582 1.582 0 01.456-1.4l8.749-8.529z"/></symbol><symbol viewBox="0 0 443 443" id="trash" xmlns="http://www.w3.org/2000/svg"><path d="M321.785 38h-83.384V0H125.169v38H41.785v60h280V38zm-166.616-8h53.232v8h-53.232v-8zm139.973 184.31l5.66-86.31H62.769l19.016 290h114.172c-14.861-21.067-23.602-46.746-23.602-74.43 0-69.14 54.494-125.791 122.787-129.26z"/><path d="M301.785 244.141c-54.826 0-99.43 44.604-99.43 99.429S246.959 443 301.785 443s99.43-44.604 99.43-99.43-44.604-99.429-99.43-99.429zm54.176 132.392l-21.213 21.213-32.963-32.963-32.963 32.963-21.213-21.213 32.963-32.963-32.963-32.963 21.213-21.213 32.963 32.963 32.963-32.963 21.213 21.213-32.963 32.963 32.963 32.963z"/></symbol><symbol viewBox="0 0 380 380" id="wrong-access" xmlns="http://www.w3.org/2000/svg"><path d="M190.001 0C85.233 0 .001 85.233.001 190S85.232 380 190 380c104.767 0 189.998-85.233 189.998-190S294.767 0 190.001 0zm0 64.225c23.047 0 44.662 6.237 63.258 17.103l-171.93 171.93C70.462 234.663 64.225 213.047 64.225 190c0-69.353 56.424-125.775 125.776-125.775zm0 251.55c-23.048 0-44.662-6.237-63.258-17.103l171.93-171.93c10.866 18.596 17.103 40.211 17.103 63.258 0 69.353-56.424 125.775-125.775 125.775z"/></symbol><symbol viewBox="0 0 91.607 91.607" id="xls" xmlns="http://www.w3.org/2000/svg"><path d="M59.245 0H12.392v91.607h66.824V27.17L55.478 10.778 59.245 0zM33.529 56.625l-2.015-4.029c-.826-1.552-1.356-2.707-1.983-3.996h-.063c-.464 1.287-1.026 2.443-1.721 3.996l-1.849 4.029h-5.746l6.44-11.263-6.21-10.998h5.781l1.947 4.062a68.872 68.872 0 011.686 3.7h.064c.53-1.42.959-2.412 1.521-3.7l1.881-4.062h5.747l-6.275 10.867 6.607 11.394h-5.812zm30.941-9.348c-3.698-1.287-6.11-3.334-6.11-6.571 0-3.799 3.173-6.706 8.424-6.706 2.511 0 4.358.529 5.681 1.124l-1.123 4.062c-.893-.429-2.477-1.056-4.656-1.056s-3.236.99-3.236 2.146c0 1.42 1.254 2.048 4.129 3.137 3.93 1.454 5.778 3.501 5.778 6.64 0 3.732-2.872 6.903-8.981 6.903-2.543 0-5.054-.662-6.311-1.354l1.025-4.162c1.354.695 3.436 1.389 5.58 1.389 2.313 0 3.535-.959 3.535-2.411-.003-1.391-1.058-2.184-3.735-3.141zm-8.516 5.119v4.229H42.046V34.364h5.056v18.033h8.852z"/><path d="M63.937 0l-3.053 8.732 18.332 12.659z"/></symbol></svg>